<?xml version="1.0" encoding="utf-8"?>
<!-- Generator: Adobe Illustrator 23.0.3, SVG Export Plug-In . SVG Version: 6.00 Build 0)  -->
<svg version="1.1" id="logoLoading" xmlns="http://www.w3.org/2000/svg" xmlns:xlink="http://www.w3.org/1999/xlink" x="0px"
	 y="0px" viewBox="0 0 250 254.5" style="enable-background:new 0 0 250 254.5;" xml:space="preserve">
<style type="text/css">
	.st0{fill:none;stroke:#FFFFFF;stroke-miterlimit:10;}
</style>
<g>
	<g>
		<g>
			<path class="st0" d="M187,170.5c0.4-0.1,0.8-0.1,1.4-0.1c0.7,0,1.3,0.2,1.6,0.5s0.5,0.7,0.5,1.2s-0.2,0.9-0.4,1.2
				c-0.4,0.4-1,0.6-1.7,0.6c-0.2,0-0.4,0-0.6-0.1v2.3h-0.7L187,170.5L187,170.5L187,170.5z M187.8,173.3c0.2,0,0.4,0.1,0.6,0.1
				c0.9,0,1.4-0.4,1.4-1.2s-0.5-1.1-1.3-1.1c-0.3,0-0.6,0-0.7,0.1V173.3z"/>
			<path class="st0" d="M196.1,173.5h-2.2v2.1h2.5v0.6h-3.2v-5.7h3.1v0.6H194v1.8h2.2v0.6L196.1,173.5L196.1,173.5z"/>
			<path class="st0" d="M203.9,173.3c0,2-1.2,3-2.6,3c-1.5,0-2.6-1.2-2.6-2.9c0-1.8,1.1-3,2.6-3
				C202.9,170.4,203.9,171.6,203.9,173.3z M199.4,173.4c0,1.2,0.7,2.3,1.8,2.3c1.2,0,1.8-1.1,1.8-2.4c0-1.1-0.6-2.3-1.8-2.3
				C200,171,199.4,172.1,199.4,173.4z"/>
			<path class="st0" d="M206.5,170.5c0.4-0.1,0.8-0.1,1.4-0.1c0.7,0,1.3,0.2,1.6,0.5s0.5,0.7,0.5,1.2s-0.2,0.9-0.4,1.2
				c-0.4,0.4-1,0.6-1.7,0.6c-0.2,0-0.4,0-0.6-0.1v2.3h-0.7v-5.6L206.5,170.5L206.5,170.5z M207.2,173.3c0.2,0,0.4,0.1,0.6,0.1
				c0.9,0,1.4-0.4,1.4-1.2s-0.5-1.1-1.3-1.1c-0.3,0-0.6,0-0.7,0.1V173.3z"/>
			<path class="st0" d="M212.6,170.5h0.7v5.1h2.4v0.6h-3.1L212.6,170.5L212.6,170.5z"/>
			<path class="st0" d="M221.2,173.5H219v2.1h2.5v0.6h-3.2v-5.7h3.1v0.6h-2.3v1.8h2.2v0.6L221.2,173.5L221.2,173.5z"/>
		</g>
		<g>
			<path class="st0" d="M187,180.9h3.1v0.6h-2.3v1.9h2.2v0.6h-2.2v2.6h-0.7v-5.7L187,180.9L187,180.9z"/>
			<path class="st0" d="M197.7,183.7c0,2-1.2,3-2.6,3c-1.5,0-2.6-1.2-2.6-2.9c0-1.8,1.1-3,2.6-3C196.7,180.8,197.7,182,197.7,183.7z
				 M193.2,183.8c0,1.2,0.7,2.3,1.8,2.3c1.2,0,1.8-1.1,1.8-2.4c0-1.1-0.6-2.3-1.8-2.3C193.8,181.4,193.2,182.5,193.2,183.8z"/>
			<path class="st0" d="M205.1,183.7c0,2-1.2,3-2.6,3c-1.5,0-2.6-1.2-2.6-2.9c0-1.8,1.1-3,2.6-3C204.1,180.8,205.1,182,205.1,183.7z
				 M200.7,183.8c0,1.2,0.7,2.3,1.8,2.3c1.2,0,1.8-1.1,1.8-2.4c0-1.1-0.6-2.3-1.8-2.3C201.3,181.4,200.7,182.5,200.7,183.8z"/>
			<path class="st0" d="M207.8,181c0.4-0.1,1-0.1,1.6-0.1c1.1,0,1.8,0.2,2.3,0.7s0.8,1.1,0.8,2.1c0,0.9-0.3,1.7-0.8,2.2
				s-1.4,0.8-2.5,0.8c-0.5,0-1,0-1.3-0.1V181L207.8,181L207.8,181z M208.5,186c0.2,0,0.5,0,0.7,0c1.6,0,2.4-0.9,2.4-2.4
				c0-1.3-0.8-2.2-2.3-2.2c-0.4,0-0.7,0-0.9,0.1v4.5L208.5,186L208.5,186z"/>
		</g>
		<g>
			<path class="st0" d="M185.4,196.1c0.3,0.2,0.8,0.4,1.3,0.4c0.8,0,1.2-0.4,1.2-1c0-0.5-0.3-0.8-1.1-1.1c-0.9-0.3-1.5-0.8-1.5-1.6
				c0-0.9,0.7-1.5,1.8-1.5c0.6,0,1,0.1,1.3,0.3l-0.2,0.6c-0.2-0.1-0.6-0.3-1.1-0.3c-0.8,0-1.1,0.5-1.1,0.9c0,0.5,0.3,0.8,1.1,1.1
				c1,0.4,1.5,0.8,1.5,1.7s-0.7,1.6-2,1.6c-0.5,0-1.1-0.2-1.5-0.4L185.4,196.1z"/>
			<path class="st0" d="M192.4,192h-1.7v-0.6h4.2v0.6h-1.7v5.1h-0.7L192.4,192L192.4,192z"/>
			<path class="st0" d="M202,194.1c0,2-1.2,3-2.6,3c-1.5,0-2.6-1.2-2.6-2.9c0-1.8,1.1-3,2.6-3C201,191.2,202,192.4,202,194.1z
				 M197.5,194.2c0,1.2,0.7,2.3,1.8,2.3c1.2,0,1.8-1.1,1.8-2.4c0-1.1-0.6-2.3-1.8-2.3C198.2,191.8,197.5,193,197.5,194.2z"/>
			<path class="st0" d="M204.6,191.4c0.4-0.1,0.9-0.1,1.4-0.1c0.8,0,1.3,0.1,1.6,0.5c0.3,0.3,0.4,0.6,0.4,1.1c0,0.8-0.5,1.3-1.1,1.5
				l0,0c0.4,0.2,0.7,0.6,0.8,1.2c0.2,0.8,0.3,1.3,0.4,1.6h-0.8c-0.1-0.2-0.2-0.7-0.4-1.4c-0.2-0.8-0.5-1.1-1.1-1.1h-0.7v2.5h-0.7
				v-5.8H204.6L204.6,191.4z M205.3,194h0.8c0.8,0,1.3-0.4,1.3-1.1s-0.5-1.1-1.3-1.1c-0.4,0-0.6,0-0.7,0.1v2.1H205.3z"/>
			<path class="st0" d="M211.5,191.3v5.7h-0.7v-5.7H211.5z"/>
			<path class="st0" d="M217.4,194.4h-2.2v2.1h2.5v0.6h-3.2v-5.7h3.1v0.6h-2.3v1.8h2.2v0.6L217.4,194.4L217.4,194.4z"/>
			<path class="st0" d="M220.2,196.1c0.3,0.2,0.8,0.4,1.3,0.4c0.8,0,1.2-0.4,1.2-1c0-0.5-0.3-0.8-1.1-1.1c-0.9-0.3-1.5-0.8-1.5-1.6
				c0-0.9,0.7-1.5,1.8-1.5c0.6,0,1,0.1,1.3,0.3l-0.2,0.6c-0.2-0.1-0.6-0.3-1.1-0.3c-0.8,0-1.1,0.5-1.1,0.9c0,0.5,0.3,0.8,1.1,1.1
				c1,0.4,1.5,0.8,1.5,1.7s-0.7,1.6-2,1.6c-0.5,0-1.1-0.2-1.5-0.4L220.2,196.1z"/>
		</g>
	</g>
	<g>
		<path class="st0" d="M41.4,111.3c3.2-12.8,10.6-34,28.4-53.8c15.9-17.6,32.8-26,43-31c18.9-9.2,34.3-11.9,52-15
			c4.2-0.7,44-7.6,45.9-1.3c1.3,4.5-16.6,9.4-33.9,30.3c-5.6,6.8-18.9,22.8-14,34c2.2,5,6.4,5.4,18.3,14c8,5.7,14,11.2,18.1,15.2"/>
		<path class="st0" d="M39.1,179.1c3.3,9,9.8,23.5,22.8,37.5c5.6,6.1,14.9,15.9,29.9,22.8c22.8,10.4,44,7.4,54.7,5.7
			c9-1.4,30.4-5,49.9-21.9c8-6.9,13.3-13.9,16.6-19"/>
		<g>
			<path id="XMLID_9_" class="st0" d="M102.7,117.5c0.2-0.4,0.3-0.6,0.4-0.8c5-5.8,9.3-12.2,13.1-18.8c2.3-4,4.3-8,6.3-12.1
				c1.1-2.2,1.8-4.6,2.6-6.9c0.3-0.8,0.4-1.7,0.4-2.6c0-1.3-0.5-1.7-1.7-1.3s-2.4,0.9-3.6,1.5c-6.7,3.7-12.5,8.5-18,13.8
				c-1.5,1.4-7.2,7.1-13.8,15.7c-4,5.2-6.7,9.3-7.5,10.5c-3.2,5-5.9,9.2-8.4,15.3c-2,4.8-3.8,9.5-4,15.9c-0.2,7.8,2.2,11.5,2.8,12.4
				c0.7,1.1,3.4,5,7,4.9c0.2,0,0.5,0,0.9-0.1c2.2-0.5,3.6-1.9,4.3-2.5c4.6-4.6,2-1.5,8.3-8c1.3-1.4,1.8-1.9,2.8-2.9
				c1.3-1.3,2.3-2.4,2.4-2.5c0.8-0.8,2.7-2.8,4.3-4.7c2.3-2.8,3.7-5.3,4.3-6.4c0.4-0.7,0.3-0.7,4.3-8.6l0,0c0.4-0.9,1.1-1.1,1.9-1
				c0.1,0,0.2,0.1,0.4,0.1c3.4,0.7,3.8,1.5,2,4.4c-1.5,2.4-3.2,4.6-4.7,6.9c-1.4,2.3-2.7,4.6-4,6.9c0,0,0,0.1,0.1,0.4
				c0.7-0.6,1.2-1,1.8-1.7c1.6-1.9,3.5-3.4,5.4-4.8c0.8-0.6,1.5-1.7,2.8-1c1.1,0.5,1.4,1.8,0.7,2.9c-0.8,1.2-1.7,2.4-2.6,3.6
				c-2.2,2.8-3.3,6.1-4.5,9.4c-0.1,0.2,0,0.5,0,0.9c0.4-0.2,0.7-0.3,0.9-0.5c0.9-0.8,1.8-1.5,2.6-2.3c2.5-2.5,5.1-5,7.4-7.7
				c1.3-1.5,1.9-3.5,2.8-5.4c0.8-1.6,1-1.7,2.7-1.2c2.2,0.7,2.5,1.2,1.3,3.1c-0.9,1.5-1.9,3-3,4.4c-1.9,2.4-3,5.2-4,8
				c-0.1,0.3,0,0.6,0,1.2c0.7-0.4,1.2-0.6,1.5-1c3.9-4,7.7-8.1,11.5-12.2c0.8-0.9,1.2-2.2,1.8-3.4h-3.4c0.1-2.3,0.6-2.8,2.7-2.7
				c1.5,0.1,2.3-0.4,2.9-1.8c1.2-2.8,2.6-5.5,4-8.2c0.2-0.4,0.9-0.6,1.4-0.9c0.2-0.1,0.4,0,0.6,0c3.2,0.4,3.9,1.6,2.3,4.3
				c-1.3,2.1-2.7,4.2-4.3,6.5c1.3,0,2.4,0,3.6,0c1,0,2-0.1,3,0s1.5-0.4,1.7-1.4h-3.5c0.3-0.8,0.4-1.5,0.7-2c0.2-0.3,0.9-0.7,1.2-0.6
				c2.2,0.4,3.4-0.5,4.2-2.6c0.9-2.5,2.3-4.8,3.5-7.2c0.4-0.8,0.9-1.2,1.8-1c0.2,0,0.4,0,0.6,0.1c3.5,0.9,3.7,1.6,1.9,4.3
				c-1.3,2.1-2.7,4.2-4.2,6.5c1.6,0,3.2,0,4.7,0c1.7,0,3.3,0.1,4.8-1.2c1-0.9,2.8-0.4,4.3,0.9c1.1,1,0.7,2,0.3,3.1
				c-0.2,0.6-0.6,1.1-0.9,1.7c-0.2,0.4-0.3,0.9-0.2,1.1c0.6,1.1,0.1,1.9-0.4,2.8c-0.9,1.6-1.8,3.2-2.7,4.8c-0.2,0.4-0.3,0.9-0.5,1.4
				c0.1,0.1,0.2,0.1,0.3,0.2c0.4-0.3,0.8-0.6,1.1-1c3.1-3.9,6.2-7.8,8.6-12.3c1.4-2.7,3.3-5.2,5.3-7.5c2.5-2.8,5-2.2,6.5,1.3
				c0,0.1,0.1,0.2,0.2,0.4c0.4-0.6,0.8-1.2,1.3-1.8c0.9-1.2,2.5-1.3,3.5-0.2c0.3,0.3,0.4,1,0.1,1.4c-4.2,6.9-6.3,14.5-8.4,22.1
				c-1.5,5.4-3.2,10.7-6.7,15.2c-1.9,2.5-4.3,4.3-7.7,4.2c-2.1-0.1-3.7-1.2-4.7-3c-0.2-0.3-0.2-0.7,0-1.3c0.3,0.2,0.6,0.3,0.8,0.5
				c1.6,1.7,4.2,2,5.9,0.5c1.6-1.4,2.8-3,3.5-5.1c0.6-1.9,1.9-3.6,2.6-5.5c1.6-4.8,3.1-9.6,4.6-14.5c0-0.1,0-0.2-0.1-0.4
				c-1.3,2-2.5,4-3.8,5.9c-0.6,0.9-1.3,1.6-1.9,2.5c-1.1,1.8-2.7,2.1-4.5,1.5c-0.6-0.2-1.1-1.3-1.3-2c-0.2-0.6,0-1.4,0.1-2.4
				c-1.1,1.6-2.1,3.1-3.1,4.5c-0.5,0.8-1.1,1.5-1.7,2.2c-0.5,0.7-1.1,0.7-1.9,0.2c-1.2-0.9-2-2.1-2.2-4c-0.7,1.2-1.2,2.1-1.7,3
				c-1.4,2.5-2.3,2.5-4.4,0.6c-1.7-1.5-1.3-3.4-0.9-5.2c0.1-0.7,0.4-1.3,0.4-2.1c-1.3,1.5-2.6,3.1-4,4.6c-1.7,1.9-3.6,3.8-5.3,5.7
				c-0.8,0.8-1.6,0.9-2.3,0.1c-0.8-0.9-1.4-1.8-2-2.9c-0.2-0.3,0-0.9,0.2-1.3c0.9-1.9,1.8-3.9,2.6-5.9c-0.4,0.6-0.9,1.1-1.3,1.7
				c-1.6,1.8-3.1,3.7-4.7,5.4c-2.3,2.4-4.7,4.7-7.1,7c-0.8,0.9-1.6,0.9-2.4,0c-0.7-0.8-1.3-1.7-1.9-2.7c-0.2-0.3-0.1-1,0.1-1.4
				c0.7-1.7,1.6-3.3,2.4-4.9c0.2-0.3,0.3-0.7,0.3-1.1c-1,1.2-1.9,2.4-2.9,3.5c-2.6,2.9-5.2,5.8-7.8,8.7c-0.8,0.9-1.6,0.9-2.4,0.1
				c-0.7-0.7-1.3-1.5-1.7-2.3c-0.2-0.5-0.2-1.4,0-1.9c0.8-2,1.8-3.9,2.5-6c-1.1,1.3-2.2,2.6-3.4,3.9c-2,2.2-4,4.4-5.9,6.6
				c-0.8,1-1.7,1-2.4,0.1c-0.8-0.9-1.4-1.9-1.9-2.9c-0.1-0.3,0-0.8,0.2-1.1c1.7-3.8,3.5-7.6,5.3-11.4c0.1-0.1,0.1-0.3,0.1-0.6
				c-0.3,0.1-0.5,0.2-0.6,0.3c-2.1,2.3-4.2,4.6-6.3,6.9c-1.1,1.3-1.5,3.3-2.5,4.3c-0.8,0.9-1.2,2-1.3,3.2c-0.2,2-2,2.6-3.2,1.4
				c-1.1-1.1-0.7-3.2-0.6-3.7c0-0.2,0.1-0.3,0.1-0.5c0.4-1.3,1-2.1,1.2-2.4c0.6-0.8,1.3-2,2.5-4.3c-0.2,0.4-0.6,0.9-1,1.5
				c0,0-0.9,1.3-2,2.6c-2.8,3.6-6.5,7.8-6.5,7.8c-2.6,2.9-4.1,4.2-5.3,5.5c-1.6,1.9-3.7,2.8-6,3.4c-2.5,0.6-4.7-0.4-6.6-1.7
				c-2.6-1.7-4.7-3.7-6.3-6c-2.9-4.2-3.5-8.3-3.9-10.4c-0.7-4.4-0.1-7.8,0.6-11.4c0.8-4.6,2.1-7.9,3.6-11.9
				c0.7-1.8,2.6-6.7,5.9-12.8c0.9-1.7,3.3-6,7.6-12.2C73,111.9,88,94.3,98.9,82.1c0,0,3.7-4.7,13.2-10.5c2.3-1.4,4.8-2.5,7.3-3.5
				c1.7-0.7,3.5-0.7,5.1,0.2c2.6,1.4,5.1,2.9,6.6,5.5c0.5,0.9,0.8,2.1,0.8,3.1c0.1,4.5-1.4,8.6-3.1,12.6c-2.2,5.4-4.8,10.6-8,15.5
				c-2,3-4.1,5.9-6.4,8.6C111.4,117,107.4,118.3,102.7,117.5 M148,138.1c-2.6,0.2-5.2,0.4-7.8,0.7c-0.4,0-0.8,0.4-1,0.8
				c-1.8,3.5-3.5,6.9-5.2,10.4c-0.4,0.8-0.7,1.6-1,2.5c-0.1,0.2,0,0.5,0.1,0.8c0.3,0,0.6,0,0.8-0.2c0.7-0.5,1.3-1,1.9-1.5
				c2.5-2.7,5-5.5,7.5-8.3c0.2-0.2,0.4-0.6,0.7-0.7C145.9,141.7,146.7,139.7,148,138.1 M155.3,136.4c-0.2,0.9-0.4,1.2-1.2,1.2
				c-0.6,0-1.6,0.2-1.8,0.7c-1.5,2.9-2.9,5.9-4.3,8.8c-0.3,0.6-0.4,1.2-0.6,2c1.9-0.2,12.8-11.7,14.5-15.1c-2.2,0.2-4.3,0.5-6.4,0.5
				c-1.4,0-1.8,0.7-2.1,1.9L155.3,136.4L155.3,136.4z M174.8,146.5c0.1,0.1,0.3,0.1,0.4,0.2c0.6-0.6,1.3-1.2,1.9-1.9
				c3.7-4.7,6.7-9.8,9.5-15.1c0.3-0.6,0.3-1-0.2-1.5c-0.8-0.7-1.7-0.9-2.3,0c-1.7,2.4-3.6,4.7-5,7.3c-1.6,3.1-2.8,6.4-4.2,9.7
				C174.6,145.5,174.8,146,174.8,146.5 M168,133.7c-0.5,0.2-1,0.2-1.3,0.5c-0.7,0.5-1.4,1.1-1.8,1.7c-2,3-4,6.1-5.9,9.2
				c-0.5,0.7-0.7,1.6-1.2,2.6C159.5,146.7,167.8,135.4,168,133.7"/>
			<path id="XMLID_8_" class="st0" d="M125.1,134.8c1.2-2.3,2.3-4.6,3.4-6.8c0.1-0.3,0.5-0.4,0.8-0.5s0.6,0,1,0.1
				c2.8,0.5,3.2,1.4,1.6,3.7c-0.7,1.1-1.5,2.1-2.4,3C128.4,135.6,126.8,135.7,125.1,134.8"/>
			<path id="XMLID_4_" class="st0" d="M205.6,130.3c1.7-2.3,3.3-4.6,5.1-6.9c1-0.1,2.8,1,3.2,2c0.1,0.3,0,0.8-0.1,1.1
				c-1.1,3.1-2.3,6.2-3.4,9.3c-0.1,0.2-0.1,0.5,0.1,0.9c0.3-0.5,0.7-1,1-1.6c3.1-4.6,6.1-9.3,9.2-13.9c1.1-1.6,1.3-1.6,3.1-0.6
				c0.3,0.2,0.6,0.3,0.8,0.5c1.7,1.2,1.8,1.6,0.6,3.3c-2.5,3.6-4.2,7.5-5.8,11.5c-1.7,4.2-3.4,8.5-5.1,12.7
				c-0.5,1.3-0.9,2.6-1.5,4.2c-0.1-0.6-0.2-0.9-0.2-1.2c0.1-3.3-0.1-6.6,0.5-9.8c0.8-3.6,2.4-7,3.6-10.4c0.7-2,1.6-3.9,2.4-5.8
				l-0.3-0.3c-0.1,0.2-0.3,0.5-0.4,0.7c-4.1,6.9-8.5,13.6-11.8,21c-0.3,0.7-0.6,1.5-0.8,2.3c-0.2,0.7-0.6,0.9-1.3,0.5
				c-1.8-0.9-3-3.2-2.2-5.4c1-3.2,2.3-6.4,3.6-9.5c0.7-1.7,1.5-3.3,2.1-5.1c-0.3,0.4-0.6,0.8-0.9,1.3c-2.3,3-4.3,6.1-5.8,9.5
				c-1.3,3-3.3,5.6-5.8,7.7c-1,0.9-2.2,1.9-3.7,1.2c-1.6-0.8-2.7-2.3-2.6-4.2c0.4-7.7,3.6-14.1,9.4-19.2c0.5-0.5,1.4-0.7,2.1-0.8
				c1.1-0.2,2.3-0.3,3.5-0.2c0.5,0,1.2,0.5,1.3,0.8c0.2,1,0.2,2,0.2,3c0,0.5-0.1,1-0.2,1.6C205.5,130.2,205.5,130.3,205.6,130.3
				 M199.5,139.4c-2-1.8-1.9-3,0.2-4.1c0.5-0.3,1.2-0.8,1.3-1.3c0.4-1.9,0.3-3.7-0.3-5.6c-0.2,0-0.3,0-0.3,0.1
				c-3.4,3.9-5.6,8.5-6.3,13.7c-0.1,0.5,0.2,1.3,0.6,1.6c0.3,0.2,1.2,0,1.6-0.4C197.4,142.2,198.4,140.8,199.5,139.4"/>
			<path id="XMLID_3_" class="st0" d="M238.2,120.6c0.5-0.7,0.9-1.3,1.3-1.8c0.8-1,2.4-1.2,3.3-0.3c0.3,0.3,0.5,1.1,0.3,1.4
				c-4.1,6.8-6.3,14.3-8.4,21.9c-0.6,2.4-1,4.9-2,7.1c-1.8,3.7-3.3,7.7-6.7,10.5c-2.1,1.7-4.4,2.7-7.1,1.9c-1.6-0.4-2.8-1.5-3.4-3
				c-0.1-0.3,0-0.6,0-0.9c0.3,0.1,0.7,0.2,0.9,0.4c2.2,2.1,4.8,2.2,6.7-0.3c1.4-1.8,2.4-3.8,3.5-5.9c3-5.7,4.4-12,6.2-18.1
				c0-0.1,0-0.3-0.1-0.6c-0.8,1.3-1.5,2.6-2.4,3.9c-1.3,1.8-2.6,3.6-4,5.3c-0.7,0.8-3,1-3.9,0.6c-0.7-0.4-1.3-2-1-3.2
				c1-4.1,1.9-8.2,4.1-11.9c1.6-2.6,3.3-5.1,5-7.6c0.5-0.8,1.2-1.4,1.9-2c2-1.5,4.1-1,5.2,1.2C237.7,119.7,237.9,120.1,238.2,120.6
				 M225.6,139c0.2,0.1,0.4,0.1,0.6,0.2c0.7-0.7,1.4-1.3,1.9-2.1c3.6-4.5,6.4-9.5,9.1-14.6c0.4-0.8,0.6-1.4-0.2-2s-1.5-0.5-2.1,0.2
				c-1,1.1-1.9,2.2-2.7,3.4c-2.6,4-4.9,8.2-6.3,12.8C225.7,137.5,225.7,138.3,225.6,139"/>
			<path id="XMLID_13_" class="st0" d="M20.7,131.3h5.8c-2.1,10.3-4.2,20.6-6.3,30.9c-2.3,0-4.5,0-6.7,0c-0.2,0-0.5-0.6-0.6-0.9
				c-1.6-7.6-3.1-15.3-4.7-22.9c-0.5-2.3-0.9-4.6-1.4-7h5.9c0.6,3.7,1.3,7.4,1.9,11.1c0.6,3.7,1.2,7.4,2.1,11.2
				C18.1,146.1,19.4,138.7,20.7,131.3"/>
			<path id="XMLID_15_" class="st0" d="M42.2,147c2.8,0.9,3.6,2.2,3.8,5.8c0.1,1.8,0.2,3.7,0.2,5.5c0,1.4,0.1,2.8,1.3,4
				c-2.1,0-3.9,0-5.8,0c-0.2,0-0.6-0.5-0.7-0.8c-0.2-1.1-0.4-2.2-0.4-3.4c-0.1-1.7,0-3.4-0.1-5.2c-0.1-2.6-1.2-3.7-3.5-3.8
				c-0.9,0-1.7,0-2.7,0v13.1H29v-31c3.8,0,7.5-0.2,11.2,0.1c4.3,0.3,6.5,3.7,6.1,8.7C46,143.8,45.4,145,42.2,147 M34.4,135.8v8.9
				c2-0.2,4.2,0.6,5.7-1.7c0.9-1.4,0.9-4.3,0.1-5.6C38.7,135.2,36.5,136,34.4,135.8"/>
		</g>
	</g>
</g>
</svg>
